<mxfile host="app.diagrams.net" agent="Mozilla/5.0 (Windows NT 10.0; Win64; x64) AppleWebKit/537.36 (KHTML, like Gecko) Chrome/140.0.0.0 Safari/537.36 Edg/140.0.0.0" version="28.2.3">
  <diagram name="Página-1" id="gCvpp5-DE0PjkTTIgsht">
    <mxGraphModel dx="1418" dy="786" grid="1" gridSize="10" guides="1" tooltips="1" connect="1" arrows="1" fold="1" page="1" pageScale="1" pageWidth="827" pageHeight="1169" math="0" shadow="0">
      <root>
        <mxCell id="0" />
        <mxCell id="1" parent="0" />
        <mxCell id="CDlf8GgYh7bMcBt-fjDJ-12" style="edgeStyle=orthogonalEdgeStyle;rounded=0;orthogonalLoop=1;jettySize=auto;html=1;entryX=0.5;entryY=0;entryDx=0;entryDy=0;" edge="1" parent="1" source="CDlf8GgYh7bMcBt-fjDJ-1" target="CDlf8GgYh7bMcBt-fjDJ-2">
          <mxGeometry relative="1" as="geometry" />
        </mxCell>
        <mxCell id="CDlf8GgYh7bMcBt-fjDJ-1" value="inicio" style="ellipse;whiteSpace=wrap;html=1;" vertex="1" parent="1">
          <mxGeometry x="354" y="70" width="120" height="80" as="geometry" />
        </mxCell>
        <mxCell id="CDlf8GgYh7bMcBt-fjDJ-13" style="edgeStyle=orthogonalEdgeStyle;rounded=0;orthogonalLoop=1;jettySize=auto;html=1;" edge="1" parent="1" source="CDlf8GgYh7bMcBt-fjDJ-2" target="CDlf8GgYh7bMcBt-fjDJ-3">
          <mxGeometry relative="1" as="geometry" />
        </mxCell>
        <mxCell id="CDlf8GgYh7bMcBt-fjDJ-2" value="Introduzir N1;N2" style="shape=parallelogram;perimeter=parallelogramPerimeter;whiteSpace=wrap;html=1;fixedSize=1;" vertex="1" parent="1">
          <mxGeometry x="354" y="220" width="120" height="60" as="geometry" />
        </mxCell>
        <mxCell id="CDlf8GgYh7bMcBt-fjDJ-5" style="edgeStyle=orthogonalEdgeStyle;rounded=0;orthogonalLoop=1;jettySize=auto;html=1;entryX=0;entryY=0.5;entryDx=0;entryDy=0;" edge="1" parent="1" source="CDlf8GgYh7bMcBt-fjDJ-3" target="CDlf8GgYh7bMcBt-fjDJ-8">
          <mxGeometry relative="1" as="geometry">
            <mxPoint x="610" y="365" as="targetPoint" />
          </mxGeometry>
        </mxCell>
        <mxCell id="CDlf8GgYh7bMcBt-fjDJ-27" style="edgeStyle=orthogonalEdgeStyle;rounded=0;orthogonalLoop=1;jettySize=auto;html=1;entryX=0;entryY=0.5;entryDx=0;entryDy=0;" edge="1" parent="1" source="CDlf8GgYh7bMcBt-fjDJ-3" target="CDlf8GgYh7bMcBt-fjDJ-2">
          <mxGeometry relative="1" as="geometry">
            <mxPoint x="350" y="250" as="targetPoint" />
            <Array as="points">
              <mxPoint x="300" y="360" />
              <mxPoint x="300" y="250" />
            </Array>
          </mxGeometry>
        </mxCell>
        <mxCell id="CDlf8GgYh7bMcBt-fjDJ-3" value="Se (N1+N2)&amp;gt;1000" style="rhombus;whiteSpace=wrap;html=1;" vertex="1" parent="1">
          <mxGeometry x="365.5" y="310" width="97" height="130" as="geometry" />
        </mxCell>
        <mxCell id="CDlf8GgYh7bMcBt-fjDJ-11" style="edgeStyle=orthogonalEdgeStyle;rounded=0;orthogonalLoop=1;jettySize=auto;html=1;entryX=0.5;entryY=0;entryDx=0;entryDy=0;" edge="1" parent="1" source="CDlf8GgYh7bMcBt-fjDJ-4" target="CDlf8GgYh7bMcBt-fjDJ-10">
          <mxGeometry relative="1" as="geometry">
            <mxPoint x="670" y="590" as="targetPoint" />
            <Array as="points">
              <mxPoint x="670" y="565" />
              <mxPoint x="671" y="565" />
            </Array>
          </mxGeometry>
        </mxCell>
        <mxCell id="CDlf8GgYh7bMcBt-fjDJ-4" value="indicar média 1" style="shape=parallelogram;perimeter=parallelogramPerimeter;whiteSpace=wrap;html=1;fixedSize=1;" vertex="1" parent="1">
          <mxGeometry x="610" y="480" width="120" height="60" as="geometry" />
        </mxCell>
        <mxCell id="CDlf8GgYh7bMcBt-fjDJ-6" value="&lt;font style=&quot;font-size: 18px;&quot;&gt;Sim&lt;/font&gt;" style="text;html=1;align=center;verticalAlign=middle;resizable=0;points=[];autosize=1;strokeColor=none;fillColor=none;" vertex="1" parent="1">
          <mxGeometry x="495" y="333" width="50" height="40" as="geometry" />
        </mxCell>
        <mxCell id="CDlf8GgYh7bMcBt-fjDJ-9" style="edgeStyle=orthogonalEdgeStyle;rounded=0;orthogonalLoop=1;jettySize=auto;html=1;" edge="1" parent="1" source="CDlf8GgYh7bMcBt-fjDJ-8" target="CDlf8GgYh7bMcBt-fjDJ-4">
          <mxGeometry relative="1" as="geometry" />
        </mxCell>
        <mxCell id="CDlf8GgYh7bMcBt-fjDJ-8" value="resultado/2" style="rounded=0;whiteSpace=wrap;html=1;" vertex="1" parent="1">
          <mxGeometry x="610" y="335" width="120" height="60" as="geometry" />
        </mxCell>
        <mxCell id="CDlf8GgYh7bMcBt-fjDJ-10" value="fim" style="ellipse;whiteSpace=wrap;html=1;" vertex="1" parent="1">
          <mxGeometry x="610" y="600" width="120" height="80" as="geometry" />
        </mxCell>
        <mxCell id="CDlf8GgYh7bMcBt-fjDJ-23" value="Não" style="text;html=1;align=center;verticalAlign=middle;resizable=0;points=[];autosize=1;strokeColor=none;fillColor=none;" vertex="1" parent="1">
          <mxGeometry x="294" y="338" width="50" height="30" as="geometry" />
        </mxCell>
      </root>
    </mxGraphModel>
  </diagram>
</mxfile>
